<svg width="284" height="55" viewBox="0 0 284 55" fill="none" xmlns="http://www.w3.org/2000/svg">
<g filter="url(#filter0_d)">
<path d="M34.968 46H47.064L27.416 21.168L45.976 1.2H34.456L14.616 22.128V1.2H4.312V46H14.616V34.672L20.632 28.4L34.968 46ZM71.758 46.768C85.838 46.768 96.27 36.976 96.27 23.6C96.27 10.224 85.838 0.431999 71.758 0.431999C57.614 0.431999 47.246 10.288 47.246 23.6C47.246 36.912 57.614 46.768 71.758 46.768ZM71.758 37.936C63.758 37.936 57.742 32.112 57.742 23.6C57.742 15.088 63.758 9.264 71.758 9.264C79.758 9.264 85.774 15.088 85.774 23.6C85.774 32.112 79.758 37.936 71.758 37.936ZM127.806 0.431999C121.918 0.431999 117.182 2.48 114.11 6.64V1.2H104.062V46H114.43V20.784C114.43 12.912 118.846 9.264 124.862 9.264C130.686 9.264 134.398 12.72 134.398 20.08V46H144.766V19.76C144.766 7.28 138.43 0.431999 127.806 0.431999ZM188.408 34.352C184.696 36.912 179 38.384 173.752 38.384C166.008 38.384 162.68 36.08 162.68 32.688C162.68 29.232 165.688 27.44 170.808 27.44H183.672V19.248H171.448C166.776 19.248 164.6 17.456 164.6 14.384C164.6 11.12 167.736 8.816 174.648 8.816C178.872 8.816 183.032 9.648 187.128 11.568L190.008 3.632C185.912 1.648 180.152 0.431999 174.264 0.431999C160.504 0.431999 154.104 6.64 154.104 13.68C154.104 17.712 156.088 21.104 159.608 22.96C155.128 24.752 152.184 28.528 152.184 33.392C152.184 41.136 159.416 46.768 173.304 46.768C180.536 46.768 187.319 45.04 191.608 42.16L188.408 34.352ZM218.19 46.768C225.998 46.768 232.462 43.952 236.686 38.768L230.03 32.624C227.022 36.144 223.246 37.936 218.766 37.936C210.382 37.936 204.43 32.048 204.43 23.6C204.43 15.152 210.382 9.264 218.766 9.264C223.246 9.264 227.022 11.056 230.03 14.512L236.686 8.368C232.462 3.248 225.998 0.431999 218.254 0.431999C204.302 0.431999 193.934 10.096 193.934 23.6C193.934 37.104 204.302 46.768 218.19 46.768ZM279.847 6C273.703 2.288 266.279 0.431999 258.727 0.431999C251.239 0.431999 243.879 2.288 237.671 6L241.191 13.744C245.095 11.504 249.191 10.096 253.607 9.456V46H263.975V9.456C268.455 10.096 272.487 11.504 276.327 13.744L279.847 6Z" fill="#FFD600"/>
</g>
<defs>
<filter id="filter0_d" x="0.312012" y="0.432007" width="283.535" height="54.336" filterUnits="userSpaceOnUse" color-interpolation-filters="sRGB">
<feFlood flood-opacity="0" result="BackgroundImageFix"/>
<feColorMatrix in="SourceAlpha" type="matrix" values="0 0 0 0 0 0 0 0 0 0 0 0 0 0 0 0 0 0 127 0"/>
<feOffset dy="4"/>
<feGaussianBlur stdDeviation="2"/>
<feColorMatrix type="matrix" values="0 0 0 0 0 0 0 0 0 0 0 0 0 0 0 0 0 0 0.25 0"/>
<feBlend mode="normal" in2="BackgroundImageFix" result="effect1_dropShadow"/>
<feBlend mode="normal" in="SourceGraphic" in2="effect1_dropShadow" result="shape"/>
</filter>
</defs>
</svg>
